<?xml version="1.0" encoding="iso-8859-1"?>
<!-- Uploaded to: SVG Repo, www.svgrepo.com, Generator: SVG Repo Mixer Tools -->
<svg height="800px" width="800px" version="1.1" id="Layer_1" xmlns="http://www.w3.org/2000/svg" xmlns:xlink="http://www.w3.org/1999/xlink" 
	 viewBox="0 0 512 512" xml:space="preserve">
<path style="fill:#45CAE0;" d="M16.638,324.693h94.454l377.817-60.107l14.885,111.638c1.261,9.456-5.427,18.128-14.893,19.311
	l-120.207,15.026l-257.603-17.174L8.052,359.04L16.638,324.693z"/>
<polygon style="fill:#F9D84E;" points="385.869,101.438 334.348,221.652 119.679,324.693 76.746,324.693 291.414,178.718 
	300.001,101.438 "/>
<polygon style="fill:#FFC20D;" points="315.716,101.438 300.001,101.438 291.414,178.718 76.746,324.693 99.797,324.693 
	303.193,191.598 "/>
<g>
	<polygon style="fill:#E9E9EA;" points="445.976,247.412 394.455,247.412 334.672,220.842 334.348,221.652 111.093,324.693 
		488.91,264.586 488.91,225.945 	"/>
	<path style="fill:#E9E9EA;" d="M497.643,330.086L360.108,359.04H111.093l-98.148-19.571L8.053,359.04l103.041,34.347
		l257.603,17.174l120.207-15.026c9.466-1.183,16.154-9.854,14.893-19.311L497.643,330.086z"/>
</g>
<path style="fill:#D3D3D5;" d="M502.67,367.789c-2.268,5.559-7.379,9.774-13.768,10.572l-120.207,15.026l-257.603-17.173
	l-99.077-33.026L8.053,359.04l103.041,34.347l257.603,17.174l120.207-15.026c9.466-1.183,16.154-9.854,14.893-19.311L502.67,367.789
	z"/>
<polygon style="fill:#F9D84E;" points="360.108,359.04 497.643,330.086 488.91,264.586 128.266,324.693 16.638,324.693 
	12.945,339.469 111.093,359.04 "/>
<g>
	<path style="fill:#B169BF;" d="M411.664,348.186l25.22-5.31l60.062-18.018l-8.036-60.273l-20.672,3.445
		C436.29,278.832,412.655,313.418,411.664,348.186z"/>
	<polygon style="fill:#B169BF;" points="128.266,324.693 196.96,359.04 265.654,359.04 179.787,316.106 	"/>
</g>
<polygon style="fill:#844A8F;" points="377.282,204.479 394.455,170.132 488.91,197.119 488.91,170.132 377.282,118.611 
	334.348,221.652 394.455,247.412 445.976,247.412 484.616,228.092 420.216,221.652 "/>
<polygon style="fill:#F9D84E;" points="488.91,197.119 394.455,170.132 377.282,204.479 420.216,221.652 484.616,228.092 
	488.91,225.945 "/>
<polygon style="fill:#B169BF;" points="334.348,290.346 394.455,350.453 360.108,359.04 300.001,298.933 "/>
<path d="M511.774,375.161L496.96,264.052v-93.921c0-3.14-1.826-5.994-4.677-7.309l-107.166-49.461
	c-3.836-1.77-8.385-0.276-10.423,3.423l-14.838,26.921c-2.147,3.893-0.73,8.79,3.164,10.935c3.893,2.147,8.79,0.729,10.935-3.164
	l11.22-20.356l95.683,44.162v11.164l-84.192-24.055c-3.725-1.064-7.68,0.675-9.412,4.14l-17.173,34.347
	c-2.077,4.155-0.094,9.353,4.21,11.074l42.934,17.174c0.701,0.28,1.438,0.46,2.19,0.537l36.717,3.672l-12.057,6.028h-47.912
	l-58.222-25.876c-0.201-0.089-0.405-0.163-0.61-0.235l-14.004-14.004c8.243,2.697,15.675,4.696,19.608,4.696
	c13.908,0,25.224-11.315,25.224-25.224c0-13.908-11.315-25.224-25.224-25.224c-7.502,0-27.712,7.258-42.04,12.795l6.311-56.802
	h78.662c4.446,0,8.05-3.604,8.05-8.05c0-4.446-3.604-8.05-8.05-8.05H300c-4.102,0-7.548,3.085-8.001,7.161l-7.419,66.771
	c-14.363-5.618-36.712-13.825-44.688-13.825c-13.908,0-25.224,11.315-25.224,25.224c0,13.908,11.315,25.224,25.224,25.224
	c8.959,0,36.055-10.356,49.595-15.764l31.004,31.004l-31.375,14.48l-17.951-29.916c-2.287-3.813-7.232-5.049-11.045-2.761
	c-3.813,2.287-5.049,7.232-2.761,11.045l17.052,28.419l-31.616,14.592l-16.652-22.203l18.276-12.427
	c3.676-2.501,4.63-7.507,2.131-11.183c-2.5-3.676-7.508-4.63-11.183-2.131L74.268,316.643h-57.63c-3.693,0-6.913,2.514-7.81,6.098
	l-8.587,34.347c-1.021,4.081,1.273,8.259,5.264,9.589l103.041,34.347c0.65,0.217,1.326,0.35,2.01,0.395l180.047,12.003
	c0.182,0.012,0.363,0.018,0.543,0.018c4.202,0,7.741-3.262,8.024-7.514c0.295-4.436-3.061-8.272-7.496-8.567l-179.017-11.935
	l-94.99-31.664l1.225-4.897l90.625,18.072c0.518,0.103,1.047,0.156,1.575,0.156h249.016c0.269,0,0.538-0.015,0.805-0.042
	c0.079-0.009,0.159-0.024,0.238-0.034c0.189-0.025,0.377-0.05,0.564-0.088c0.017-0.003,0.034-0.004,0.05-0.007l129.044-27.167
	l5.005,37.537c0.324,2.43-0.322,4.837-1.819,6.778c-1.497,1.941-3.661,3.177-6.093,3.482l-119.442,14.93l-42.45-2.83
	c-4.424-0.284-8.272,3.061-8.567,7.496c-0.295,4.435,3.061,8.272,7.496,8.567l43.219,2.882c0.179,0.012,0.357,0.018,0.536,0.018
	c0.334,0,0.668-0.021,0.998-0.062l120.207-15.026c6.724-0.84,12.706-4.259,16.845-9.625
	C510.884,388.532,512.67,381.878,511.774,375.161z M388.395,200.253l10.273-20.546l82.192,23.484v16.435l-58.711-5.871
	L388.395,200.253z M394.455,255.462h51.521c1.25,0,2.483-0.291,3.6-0.85l31.284-15.642v18.796l-319.599,53.267
	c0.123-0.254,0.235-0.515,0.331-0.78l173.873-80.25l55.723,24.765C392.215,255.226,393.329,255.462,394.455,255.462z
	 M398.184,342.797l-47.082-47.082l80.637-13.439c-15.215,15.66-25.498,36.903-27.702,59.29L398.184,342.797z M362.718,350.264
	l-48.415-48.415l17.284-2.881l47.79,47.79L362.718,350.264z M267.554,350.99l-62.025-31.013l89.257-14.877l45.889,45.889h-73.12
	V350.99z M198.86,350.99l-44.852-22.426l24.521-4.086l53.025,26.513L198.86,350.99L198.86,350.99z M150.626,284.189l26.34-17.911
	l9.76,14.64l-30.062,13.875C156.664,294.794,151.441,284.875,150.626,284.189z M342.935,169.595c5.031,0,9.123,4.093,9.123,9.123
	c0,5.031-4.093,9.123-9.123,9.123c-3.367-0.013-15.685-4.037-29.365-9.123C327.25,173.632,339.566,169.608,342.935,169.595z
	 M239.894,187.842c-5.031,0-9.123-4.093-9.123-9.123c0-5.031,4.093-9.123,9.123-9.123c3.367,0.013,15.685,4.037,29.365,9.123
	C255.58,183.805,243.263,187.829,239.894,187.842z M227.848,261.94l-26.325,12.15l-11.243-16.864l22.538-15.326L227.848,261.94z
	 M137.816,292.901c0.118,0.353,4.224,8.643,4.224,8.643l-32.714,15.099h-6.424L137.816,292.901z M22.803,333.226l0.121-0.483h53.812
	c0.005,0,0.012,0.001,0.017,0.001c0.004,0,0.01-0.001,0.014-0.001h34.301c0.01,0,0.019,0.002,0.03,0.002
	c0.013,0,0.026-0.002,0.04-0.002h15.229l36.494,18.247h-50.972L22.803,333.226z M420.751,338.047
	c4.704-27.913,24.628-53.509,49.533-62.195l11.746-1.958l6.647,49.853L420.751,338.047z"/>
</svg>